<?xml version="1.0" encoding="UTF-8"?>
<!-- Generated by Pixelmator Pro 3.7.1 -->
<svg width="256" height="256" viewBox="0 0 256 256" xmlns="http://www.w3.org/2000/svg">
    <g id="Group">
        <path id="Path" fill="#000000" stroke="none" d="M 150.627411 31.833481 L 224.166519 105.372589 C 236.6633 117.869354 236.6633 138.130646 224.166519 150.627411 L 150.627411 224.166519 C 138.130646 236.6633 117.869362 236.6633 105.372581 224.166519 L 31.833477 150.627411 C 19.3367 138.130646 19.3367 117.869354 31.833477 105.372589 L 105.372581 31.833481 C 117.869362 19.3367 138.130646 19.3367 150.627411 31.833481 Z"/>
    </g>
    <g id="g1">
        <path id="path1" fill="#ffffff" stroke="none" d="M 126.5 75.5 C 130 75.5 131.5 90.5 130 115.5 C 128.5 140.5 126.5 165.5 125 180.5 C 124 170.5 126.5 140.5 129 115.5 C 131.5 90.5 128 75.5 126.5 75.5 Z"/>
        <path id="path2" fill="#ffffff" stroke="none" d="M 84 158 C 101.5 140.5 121.5 118 149 98 L 154 93 C 131.5 110.5 106.5 135.5 89 163 L 84 158 Z"/>
        <path id="path3" fill="#ffffff" stroke="none" d="M 128 118 C 139 130.5 151.5 143 164 155.5 L 159 160.5 C 146.5 148 134 135.5 128 118 Z"/>
        <path id="path4" fill="#ffffff" stroke="none" d="M 145 101 L 166.5 88 L 161.5 83 L 147 95 L 145 101 Z"/>
        <path id="Path-copy-2" fill="#000000" stroke="none" opacity="0.386257" d="M 145 100 L 159 91 L 157 88 Z"/>
        <path id="Path-copy" fill="#000000" stroke="none" opacity="0.643197" d="M 139 134 L 158 152 L 157 153 L 156 154 L 148 146 L 139 134 Z"/>
    </g>
</svg>
